<svg width="1448" height="5082" viewBox="0 0 1448 5082" fill="none" xmlns="http://www.w3.org/2000/svg">
<path d="M891.5 1.07345C992 -0.427063 1193.86 19.8408 1070.66 175.576C916.647 370.245 1462.28 522.44 1374.27 370.245C1286.27 218.049 617.432 391.481 1158.66 649.86C1591.64 856.563 740.638 910.598 261.013 911.778C93.1493 919.448 -164.491 996.388 147.856 1242.78C538.29 1550.78 1244.71 1681.76 1201.68 1869.39C1158.66 2057.02 -385.358 2873.07 147.856 2873.07C1321 2873.07 252.144 3344.97 713 3505.07C853.545 3553.9 1447.95 3471.24 1417 3781.07C1359.34 4358.35 -59.8002 4084.27 96.9998 4401.07C293 4797.07 1417 4945.07 1447 5081.07" stroke="url(#paint0_linear_15_163)" stroke-width="1.5" stroke-linecap="square"/>
<defs>
<linearGradient id="paint0_linear_15_163" x1="952.5" y1="-970.427" x2="724" y2="5081.07" gradientUnits="userSpaceOnUse">
<stop stop-color="#9324AC"/>
<stop offset="1" stop-color="#11E9E3"/>
</linearGradient>
</defs>
</svg>
