<svg width="1448" height="100%" viewBox="0 0 1448 5081" fill="none" xmlns="http://www.w3.org/2000/svg">
<path d="M891.5 5080C992 5081.5 1193.86 5061.23 1070.66 4905.5C916.647 4710.83 1462.28 4558.63 1374.27 4710.83C1286.27 4863.02 617.432 4689.59 1158.66 4431.21C1591.64 4224.51 740.638 4170.48 261.013 4169.3C93.1493 4161.63 -164.491 4084.69 147.856 3838.29C538.29 3530.3 1244.71 3399.31 1201.68 3211.68C1158.66 3024.06 -385.358 2208 147.856 2208C1321 2208 252.144 1736.11 713 1576C853.545 1527.17 1447.95 1609.83 1417 1300C1359.34 722.724 -59.8002 996.8 96.9998 680C293 284 1417 136 1447 0" stroke="url(#paint0_linear_2011_63)" stroke-width="1.5" stroke-linecap="square"/>
<defs>
<linearGradient id="paint0_linear_2011_63" x1="952.5" y1="6051.5" x2="724" y2="0.000114152" gradientUnits="userSpaceOnUse">
<stop stop-color="#9324AC"/>
<stop offset="1" stop-color="#11E9E3"/>
</linearGradient>
</defs>
</svg>
