<svg width="71" height="70" viewBox="0 0 71 70" fill="none" xmlns="http://www.w3.org/2000/svg">
<path fill-rule="evenodd" clip-rule="evenodd" d="M34.14 0.003764C29.0297 0.202766 24.2074 1.43758 19.6644 3.71047C15.4996 5.79419 11.7163 8.76373 8.7093 12.3094C6.85413 14.4968 5.33534 16.794 4.06659 19.3316C-0.869109 29.2033 -0.870062 40.7885 4.06401 50.6501C6.97782 56.4738 11.3745 61.2868 16.9591 64.7662C19.2003 66.1625 21.7719 67.3645 24.3509 68.2211C29.0862 69.794 34.1268 70.3335 39.1108 69.801C44.1022 69.2677 49.0189 67.6243 53.3151 65.0531C59.065 61.6119 63.689 56.6289 66.6804 50.6501C68.529 46.9554 69.7248 42.9058 70.1666 38.8439C70.2676 37.9147 70.3501 36.793 70.3501 36.3482C70.3501 36.2054 70.3627 36.0809 70.3782 36.0714C70.396 36.0603 70.4062 35.6598 70.4062 34.9619C70.4062 34.2409 70.3966 33.8756 70.3782 33.887C70.3602 33.8981 70.3501 33.8096 70.3501 33.6415C70.3501 33.0847 70.2233 31.541 70.0954 30.5405C69.4593 25.5651 67.7301 20.7168 65.0765 16.4681C63.169 13.4141 60.766 10.6286 58.0561 8.33031C54.5997 5.39899 50.666 3.18552 46.3829 1.76182C44.4189 1.10897 42.1426 0.580326 40.133 0.310304C38.4899 0.0895145 37.4317 0.0164782 35.6943 0.00398804C34.9703 -0.00124885 34.2709 -0.00133287 34.14 0.003764ZM28.5671 24.3686C23.7383 33.0929 19.7834 40.2434 19.7782 40.2586C19.7721 40.2766 22.5072 40.2861 27.6826 40.2861C35.5482 40.2861 35.5962 40.2864 35.5962 40.3415C35.5962 40.372 35.2051 45.1069 34.727 50.8636C34.2489 56.6204 33.8614 61.3554 33.8658 61.3859C33.8706 61.4184 37.4965 54.8962 42.654 45.5778L51.4341 29.7143L43.5152 29.7073C37.2078 29.7017 35.5964 29.6931 35.5971 29.6653C35.5975 29.646 35.9929 24.8793 36.4758 19.0725C36.9587 13.2657 37.3521 8.51278 37.3501 8.5104C37.3482 8.50802 33.3958 15.6442 28.5671 24.3686ZM0.379006 34.9932C0.379006 35.6016 0.382703 35.8505 0.38724 35.5463C0.391749 35.2421 0.391749 34.7443 0.38724 34.4401C0.382703 34.1359 0.379006 34.3848 0.379006 34.9932Z" fill="url(#paint0_linear_2045_1328)"/>
<defs>
<linearGradient id="paint0_linear_2045_1328" x1="0.364136" y1="35" x2="70.4062" y2="35" gradientUnits="userSpaceOnUse">
<stop stop-color="#11E9E3" stop-opacity="0.6"/>
<stop offset="1" stop-color="#86239B"/>
</linearGradient>
</defs>
</svg>
