<svg width="47" height="70" viewBox="0 0 47 70" fill="none" xmlns="http://www.w3.org/2000/svg">
<path fill-rule="evenodd" clip-rule="evenodd" d="M9.69858 0.189752C7.15148 0.670027 5.17481 1.7268 3.35353 3.58233C2.36282 4.59173 1.9291 5.19724 1.34572 6.38514C0.358943 8.39443 0.0540593 9.6461 0.0583211 11.6705C0.0670087 15.8825 2.02499 19.4045 5.65115 21.7312C6.57761 22.3257 8.94997 23.2208 9.60843 23.2245C10.2221 23.2277 9.80709 23.4757 8.829 23.69C7.60012 23.9595 5.7777 24.8459 4.56652 25.7637C0.147654 29.1118 -1.25137 35.4872 1.34752 40.4329C2.86457 43.3198 5.78065 45.6568 8.72115 46.3423C10.0669 46.656 10.0718 46.6845 8.83474 47.0027C6.76644 47.5346 5.14104 48.4959 3.46369 50.1794C2.27005 51.3773 1.84911 51.9367 1.29704 53.0594C0.400579 54.8821 0.0614351 56.3439 0.0612712 58.3867C0.0607795 62.8844 2.50395 66.7853 6.58417 68.8014C8.40806 69.7027 9.68579 69.9992 11.7475 70C17.1507 70.002 21.7258 66.4371 23.0568 61.188C23.37 59.9526 23.3861 59.3459 23.3946 48.3206L23.4036 36.7497L23.709 37.8971C24.295 40.0997 25.1256 41.5592 26.7208 43.1898C28.01 44.5074 29.3668 45.3889 31.1035 46.0372C32.2976 46.4831 32.7539 46.5626 34.4995 46.6294C36.912 46.722 38.2114 46.4673 40.1871 45.5151C42.5229 44.3894 44.3676 42.5469 45.517 40.1919C47.9167 35.2749 46.667 29.4911 42.4422 25.9623C41.3717 25.0682 39.2742 23.9926 38.0561 23.7132C36.7035 23.403 36.6981 23.373 37.9365 23.0545C40.0048 22.5226 41.6302 21.5612 43.3075 19.8778C44.5012 18.6799 44.9221 18.1204 45.4742 16.9978C46.3706 15.175 46.7098 13.7132 46.7099 11.6705C46.7104 7.19849 44.1694 3.13468 40.1871 1.23882C37.54 -0.0213726 38.4297 0.045833 23.8774 0.00764043C13.6581 -0.019078 10.5983 0.020262 9.69858 0.189752ZM23.3946 28.349L23.4036 33.3074L23.709 32.16C24.284 29.9986 25.1189 28.5117 26.639 26.9409C28.2282 25.2988 30.0203 24.2524 32.2917 23.6403C33.069 23.4308 32.7372 23.4111 28.2621 23.4013L23.3856 23.3905L23.3946 28.349Z" fill="url(#paint0_linear_2045_1339)"/>
<defs>
<linearGradient id="paint0_linear_2045_1339" x1="0.0446777" y1="35" x2="46.7256" y2="35" gradientUnits="userSpaceOnUse">
<stop stop-color="#11E9E3" stop-opacity="0.6"/>
<stop offset="1" stop-color="#86239B"/>
</linearGradient>
</defs>
</svg>
