<svg width="53" height="70" viewBox="0 0 53 70" fill="none" xmlns="http://www.w3.org/2000/svg">
<path fill-rule="evenodd" clip-rule="evenodd" d="M22.4156 0.228551C18.0999 0.818806 14.4677 1.97198 12.0475 3.52042L10.6255 4.4302L9.76224 4.12566C5.50511 2.62359 0.946882 6.64118 2.16283 10.8238C2.56396 12.2033 3.26032 13.1802 4.2839 13.799L5.02906 14.2493L4.75064 16.0717C4.3406 18.7551 4.55078 26.1004 5.21454 32.299L5.34778 33.5443L4.46594 33.6842C2.31915 34.0248 0.64801 35.407 0.64801 36.842C0.64801 37.7384 1.21802 39.0174 1.90121 39.654C2.45968 40.1742 3.37412 40.1817 4.36976 39.674L5.13962 39.2816L5.02562 40.4334C4.96305 41.067 4.80187 43.3277 4.66762 45.4571C4.18489 53.114 5.32693 58.5861 8.15246 62.1535L8.75223 62.9109L7.63328 63.979C6.26 65.2897 5.93844 66.1491 6.31629 67.4989C6.51878 68.2223 6.80185 68.605 7.611 69.2496C8.5141 69.969 8.74433 70.0612 9.41376 69.9717C10.0745 69.8832 11.8054 68.8041 12.717 67.9121C12.8399 67.7919 13.306 67.5286 13.7525 67.3271C14.5643 66.9613 14.5653 66.9613 16.5211 67.5878C19.5969 68.5731 21.7569 68.8764 25.7567 68.8851C30.5315 68.8952 34.329 68.2458 37.3773 66.8979C38.0084 66.6186 38.6757 66.3902 38.8599 66.3902C39.044 66.3902 39.8479 67.0736 40.6461 67.9089C42.0275 69.3545 42.1407 69.4276 42.9996 69.4276C43.6451 69.4276 44.1005 69.2822 44.5995 68.9167C46.499 67.525 46.4494 65.3492 44.4681 63.1563L43.7581 62.3704L44.4816 61.4226C46.0432 59.3766 47.3614 55.8385 48.0626 51.811C48.2376 50.8069 48.3245 48.4554 48.3194 44.8693C48.3125 40.042 48.3463 39.4598 48.6266 39.5712C49.5147 39.9235 50.1728 39.8881 50.7191 39.4584C51.4863 38.855 52.0802 37.6198 52.0802 36.6278C52.0802 35.4048 50.8448 34.1246 49.1682 33.6103L47.9292 33.2304L47.8055 27.0808C47.7372 23.6987 47.6172 20.2936 47.5386 19.514C47.3422 17.5679 46.8192 14.1155 46.689 13.9047C46.6302 13.8095 47.0585 13.3033 47.6409 12.7796C50.1047 10.5642 50.3297 7.36487 48.192 4.93642C46.5997 3.12738 44.2494 2.53025 41.8886 3.33474L40.9391 3.65811L39.9734 3.03849C38.5864 2.14835 36.4813 1.23107 35.0189 0.879351C31.5456 0.0442866 25.897 -0.247501 22.4156 0.228551ZM31.4747 5.14519C29.9885 5.61274 27.8463 7.42238 28.0745 8.01729C28.1418 8.19245 28.0944 8.24287 27.9474 8.15195C27.7929 8.05637 27.755 8.11692 27.8364 8.32913C27.9042 8.5063 27.8287 8.76023 27.6683 8.89326C27.2508 9.23972 27.2816 11.5517 27.7163 12.4976C28.2217 13.5979 28.7999 14.3708 29.0169 14.2365C29.1226 14.1713 29.184 14.228 29.1534 14.3625C29.1228 14.4971 29.6388 14.8871 30.3001 15.2291C31.3611 15.7781 31.7066 15.8524 33.2362 15.8603C34.7676 15.8682 35.1116 15.7983 36.1848 15.2617C36.8767 14.9159 37.3759 14.5389 37.3441 14.3862C37.3135 14.2386 37.3844 14.1772 37.5016 14.2497C37.8359 14.4562 38.8486 13.2292 39.2037 12.1867C39.5733 11.1022 39.6529 9.59792 39.3141 10.0983C39.1628 10.3218 39.144 10.2503 39.2424 9.82714C39.3892 9.19699 38.9604 7.61859 38.688 7.78686C38.5947 7.84457 38.5685 7.76054 38.6303 7.59976C38.7911 7.18041 37.6332 5.94623 36.6182 5.45479C35.6547 4.98846 35.1754 4.91597 35.3941 5.26992C35.4844 5.41592 35.4496 5.44852 35.3016 5.35699C35.1712 5.2764 35.1169 5.12575 35.1811 5.02208C35.3579 4.73616 32.47 4.83194 31.4747 5.14519ZM32.6441 5.32237C32.7753 5.45358 32.9122 5.45358 33.0434 5.32237C33.1744 5.19136 33.106 5.12291 32.8438 5.12291C32.5815 5.12291 32.5131 5.19136 32.6441 5.32237ZM16.2397 5.65546C16.2397 5.77331 16.1546 5.81725 16.0505 5.75306C15.7737 5.58196 14.1959 6.25928 14.3377 6.4885C14.4037 6.59542 14.2893 6.65414 14.0832 6.6189C13.8566 6.58003 13.7306 6.66062 13.7642 6.82281C13.7954 6.97346 13.7221 7.03077 13.5974 6.95362C13.2704 6.75133 12.4191 7.63661 11.9364 8.68085C11.2953 10.0677 11.1855 12.9999 11.7886 12.6272C11.8953 12.5611 11.9317 12.6403 11.8691 12.8031C11.8068 12.9659 11.9021 13.3822 12.0809 13.7283C12.4389 14.4204 13.6776 15.7718 13.9449 15.7615C14.0376 15.758 13.9366 15.6214 13.7205 15.4578C13.5042 15.2943 13.4196 15.1605 13.5322 15.1605C13.6446 15.1605 13.9424 15.397 14.1939 15.6862C14.4916 16.0286 14.787 16.1764 15.0407 16.1102C15.255 16.0541 15.3833 16.0841 15.326 16.177C15.1699 16.4295 17.2894 16.6411 18.2963 16.4734C19.4181 16.2865 20.7212 15.7724 20.594 15.5669C20.5403 15.4798 20.6547 15.4213 20.8485 15.4365C21.0433 15.4519 21.1757 15.3444 21.145 15.1961C21.1144 15.0485 21.1721 14.9791 21.2731 15.0414C21.5544 15.2152 22.5557 14.3392 22.4352 14.0249C22.3767 13.8725 22.4241 13.7696 22.5401 13.7961C22.9712 13.8945 23.5714 11.8844 23.4716 10.6776C23.2059 7.46875 20.9143 5.44102 17.5536 5.44102C16.7639 5.44102 16.2397 5.52648 16.2397 5.65546ZM30.3043 5.85957C30.2308 5.97823 30.2142 6.11896 30.2673 6.17201C30.3203 6.22506 30.4177 6.12787 30.4838 5.95595C30.6206 5.59917 30.504 5.5364 30.3043 5.85957ZM28.8995 9.16439C28.2687 9.79515 28.0587 10.923 28.4139 11.7723C28.5646 12.1323 28.6674 12.4913 28.6425 12.5701C28.6176 12.6488 28.9141 12.7727 29.3012 12.8454C29.6886 12.9181 29.9553 13.0587 29.8939 13.1579C29.7495 13.3914 30.0729 13.392 30.3228 13.1583C30.6405 12.8616 31.4982 12.6531 31.3385 12.9115C31.2623 13.0348 31.2417 13.1356 31.2927 13.1356C31.5235 13.1356 32.2363 11.441 32.2363 10.892C32.2363 10.1339 31.7523 9.16622 31.235 8.88941C30.5285 8.51116 29.4225 8.64137 28.8995 9.16439ZM13.4761 9.2869C13.237 9.38349 12.9802 9.56147 12.9053 9.68236C12.8306 9.80345 12.6908 9.85387 12.5949 9.79454C12.4989 9.73521 12.3545 9.79333 12.2739 9.92373C12.1824 10.0717 12.215 10.1066 12.361 10.0163C12.6493 9.83828 12.6499 9.87999 12.3711 10.6794C12.0176 11.6941 12.4853 13.0147 13.3034 13.3104C14.2338 13.6469 14.903 13.5934 15.4846 13.136C16.007 12.725 16.7779 10.9082 16.4298 10.9082C16.3253 10.9082 16.2397 10.7813 16.2397 10.626C16.2397 10.4707 15.9752 10.0606 15.6522 9.71476C15.0444 9.06416 14.3614 8.92991 13.4761 9.2869ZM30.8189 11.3132C30.8189 11.5742 30.9213 11.7178 31.072 11.6676C31.2113 11.6212 31.3251 11.4616 31.3251 11.3132C31.3251 11.1648 31.2113 11.0052 31.072 10.9589C30.9213 10.9086 30.8189 11.0522 30.8189 11.3132ZM14.9032 11.5967C14.8291 11.7899 14.8686 12.048 14.9911 12.1705C15.1531 12.3325 15.2507 12.2975 15.3487 12.0422C15.4228 11.849 15.3833 11.5908 15.2608 11.4683C15.0988 11.3063 15.0012 11.3414 14.9032 11.5967ZM28.1159 12.4204C28.0531 12.5838 28.0699 12.7598 28.1533 12.8114C28.2367 12.8629 28.3181 12.7292 28.3343 12.5142C28.3694 12.0491 28.274 12.0082 28.1159 12.4204ZM38.3069 13.2417C38.166 13.4114 38.0901 13.5896 38.1378 13.6376C38.1858 13.6854 38.3363 13.5467 38.4722 13.329C38.7662 12.8582 38.6682 12.8066 38.3069 13.2417ZM24.8949 20.8751C24.579 20.9839 24.3947 21.1613 24.4704 21.2838C24.55 21.4123 24.5085 21.4411 24.3688 21.3546C24.2392 21.2745 23.9478 21.2678 23.7214 21.3397C23.4171 21.4362 23.344 21.578 23.4412 21.8844C23.5281 22.1575 23.4975 22.2519 23.3515 22.1618C23.2002 22.0682 23.1695 22.2359 23.2539 22.6931C23.4485 23.7471 23.8028 24.3693 24.2398 24.4256C25.0332 24.5274 25.2369 24.1642 25.3713 22.4092C25.442 21.485 25.4894 20.7186 25.4764 20.7061C25.4635 20.6935 25.2018 20.7696 24.8949 20.8751ZM26.26 21.9176C26.0517 23.8912 26.7079 24.9531 27.7943 24.4003C28.2531 24.1668 28.2845 24.0512 28.2408 22.7565C28.2149 21.9905 28.112 21.2821 28.0124 21.1825C27.9126 21.0827 27.5072 20.9282 27.1111 20.8389L26.391 20.6765L26.26 21.9176ZM27.5791 21.4377C27.5791 21.549 27.6702 21.6402 27.7815 21.6402C27.8929 21.6402 27.984 21.549 27.984 21.4377C27.984 21.3263 27.8929 21.2352 27.7815 21.2352C27.6702 21.2352 27.5791 21.3263 27.5791 21.4377Z" fill="url(#paint0_linear_2045_1312)"/>
<defs>
<linearGradient id="paint0_linear_2045_1312" x1="0.64801" y1="35" x2="52.0802" y2="35" gradientUnits="userSpaceOnUse">
<stop stop-color="#11E9E3" stop-opacity="0.6"/>
<stop offset="1" stop-color="#86239B"/>
</linearGradient>
</defs>
</svg>
