<svg width="69" height="70" viewBox="0 0 69 70" fill="none" xmlns="http://www.w3.org/2000/svg">
<path fill-rule="evenodd" clip-rule="evenodd" d="M14.0241 0.118342C13.8907 0.183423 10.8483 1.92587 7.26314 3.99042C2.30432 6.84602 0.705839 7.78226 0.582561 7.90331C0.477465 8.0065 0.395001 8.13057 0.347894 8.2565L0.275269 8.45063V31.2326V54.0145L0.378209 54.2205C0.434842 54.3338 0.532603 54.4761 0.595494 54.5367C0.709177 54.6462 26.7898 69.6878 27.2152 69.8892C27.5136 70.0304 27.8424 70.0369 28.124 69.9072C28.4861 69.7404 54.6665 54.6463 54.7751 54.5417C54.8351 54.4839 54.9289 54.3558 54.9837 54.2572L55.0831 54.0777L55.0921 46.7245L55.1011 39.3713L61.4151 35.7386C65.8289 33.1992 67.784 32.0565 67.9114 31.9415C68.0235 31.8403 68.1255 31.7066 68.1764 31.5939L68.2592 31.4106V23.6398V15.869L68.1445 15.636C68.0714 15.4875 67.9768 15.3599 67.8838 15.2841C67.7527 15.1775 54.9389 7.7791 54.5006 7.55701C54.2843 7.4474 53.9606 7.41221 53.7219 7.47232C53.616 7.49895 51.1533 8.89694 46.9006 11.3446C41.822 14.2675 40.205 15.2138 40.076 15.3385C39.9831 15.4283 39.872 15.5769 39.8293 15.6687L39.7515 15.8357L39.7341 23.1708L39.7167 30.5058L34.2759 33.6419C31.2835 35.3667 28.8234 36.7788 28.8091 36.7799C28.7947 36.781 28.783 30.4074 28.783 22.6163V8.45063L28.7104 8.2565C28.6632 8.1305 28.5809 8.00664 28.4757 7.90345C28.3525 7.78261 26.7247 6.82986 21.688 3.93052C18.0439 1.83284 14.9968 0.0903208 14.9167 0.058267C14.8273 0.0224933 14.6737 0 14.5188 0C14.3024 0 14.2319 0.0168613 14.0241 0.118342ZM9.08833 5.51037C6.12457 7.21899 3.67895 8.62977 3.65361 8.64545C3.62267 8.66461 5.39261 9.70222 9.03955 11.8029C12.0272 13.5238 14.4886 14.9361 14.5094 14.9414C14.5371 14.9485 25.3823 8.73091 25.4371 8.6765C25.4538 8.65991 14.5893 2.41627 14.5329 2.41001C14.5021 2.40661 12.0521 3.80178 9.08833 5.51037ZM48.5242 12.9807L43.0778 16.1196L48.5377 19.263C51.5407 20.9919 54.0041 22.404 54.0121 22.4011C54.0481 22.3879 64.8072 16.1858 64.856 16.1501C64.9013 16.117 63.9616 15.5633 59.4807 12.983C56.4941 11.2632 54.0326 9.85282 54.0106 9.8489C53.9886 9.84497 51.5197 11.2543 48.5242 12.9807ZM2.50026 31.8554V53.1055L14.4824 60.0058C21.0727 63.801 26.4856 66.9187 26.5113 66.934C26.5503 66.9573 26.558 65.9259 26.558 60.6724V54.383L20.2629 50.8233C16.2749 48.5683 13.9057 47.209 13.7983 47.1143C13.6989 47.0267 13.5885 46.8829 13.5314 46.7667L13.434 46.5684L13.4166 31.7263L13.3992 16.8843L10.6006 15.2714C9.06138 14.3844 6.68342 13.0154 5.31627 12.2292C3.94911 11.4431 2.75621 10.7561 2.6654 10.7026L2.50026 10.6053V31.8554ZM21.0998 13.7473L15.659 16.8843L15.6503 30.6246L15.6415 44.3649L15.8449 44.2499C15.9568 44.1866 18.4129 42.7737 21.3028 41.1102L26.5572 38.0856L26.5576 24.3445C26.5578 16.7869 26.5541 10.605 26.5493 10.6069C26.5445 10.6087 24.0923 12.0219 21.0998 13.7473ZM41.9605 24.277L41.9619 30.5067L47.2506 33.5487C50.1594 35.2218 52.615 36.634 52.7075 36.6871L52.8757 36.7834L52.8669 30.5532L52.8581 24.3231L48.2169 21.651C45.6643 20.1813 43.212 18.7693 42.7674 18.5131L41.9591 18.0473L41.9605 24.277ZM60.5674 21.2014L55.1005 24.349V30.5655C55.1005 33.9845 55.1078 36.7819 55.1168 36.7819C55.1443 36.7819 65.9619 30.5519 66.0083 30.5093C66.0429 30.4775 66.05 29.1996 66.043 24.2615L66.0342 18.0537L60.5674 21.2014ZM28.8258 39.3501C22.224 43.152 16.8151 46.2698 16.8062 46.2788C16.7859 46.299 27.6286 52.438 27.6846 52.438C27.7072 52.438 33.1336 49.3505 39.7433 45.5769L51.7611 38.7157L51.6317 38.6399C51.0557 38.3024 40.8948 32.4609 40.8662 32.4508C40.8459 32.4436 35.4277 35.5483 28.8258 39.3501ZM40.8221 47.5193L28.7861 54.3906L28.7845 60.6774C28.7836 64.5293 28.7955 66.9597 28.8153 66.9526C28.833 66.9462 34.2538 63.8277 40.8615 60.0226L52.8755 53.1043V46.8726C52.8755 43.4451 52.8716 40.6425 52.8668 40.6445C52.862 40.6464 47.4419 43.7401 40.8221 47.5193Z" fill="url(#paint0_linear_2045_1297)"/>
<defs>
<linearGradient id="paint0_linear_2045_1297" x1="0.275269" y1="35" x2="68.2592" y2="35" gradientUnits="userSpaceOnUse">
<stop stop-color="#11E9E3" stop-opacity="0.6"/>
<stop offset="1" stop-color="#86239B"/>
</linearGradient>
</defs>
</svg>
