<svg width="137" height="70" viewBox="0 0 137 70" fill="none" xmlns="http://www.w3.org/2000/svg">
<path fill-rule="evenodd" clip-rule="evenodd" d="M87.1598 0.0741508C86.0705 0.258193 85.3336 1.46176 85.3336 3.05632C85.3336 4.11474 85.6913 4.91202 86.9716 6.70591C87.921 8.03622 89.3055 10.7437 90.2646 13.1456C91.1747 15.425 92.2349 17.6251 92.62 18.0352C93.4666 18.9364 93.4874 19.5902 92.7606 22.4276C91.2619 28.277 93.4082 35.5776 96.6258 35.5776C98.0662 35.5776 98.7659 34.7508 99.1215 32.6298L99.4111 30.9033L100.423 32.6329C101.471 34.4254 106.779 39.9446 107.123 39.6004C107.231 39.4928 106.623 38.5045 105.772 37.4044C103.6 34.5945 102.223 32.336 100.778 29.2073C100.091 27.7211 99.3528 26.564 99.1371 26.6359C98.3207 26.9078 97.471 28.5326 97.0936 30.5425C96.4835 33.7924 96.4887 33.7837 95.7285 32.852C94.0128 30.7484 93.5516 26.0057 94.7048 22.3262C95.6316 19.3694 95.5928 18.9127 94.2413 16.9046C93.6016 15.9542 92.5092 13.7117 91.8133 11.9212C91.1174 10.1308 89.7656 7.49382 88.8096 6.06142C87.854 4.62901 87.0713 3.20043 87.0709 2.88652C87.0688 1.55135 89.1114 1.9302 92.654 3.92202C93.6888 4.504 95.681 5.2176 97.0804 5.5079C100.556 6.22844 102.752 7.30665 105.821 9.80024C110.217 13.371 112.775 16.8365 115.421 22.8064C118.379 29.4774 119.91 32.1051 120.836 32.1051C122.193 32.1051 131.129 37.1909 130.58 37.6506C130.427 37.7788 129.183 38.0649 127.815 38.2868C124.754 38.7834 123.531 39.3143 123.531 40.1467C123.531 41.1891 125.904 43.5018 128.536 45.0241C130.986 46.4409 132.565 47.4014 134.383 48.5806C134.965 48.9581 135.337 49.046 135.337 48.8053C135.337 48.1275 132.505 45.2943 129.664 43.1295C128.085 41.9267 127.072 40.9266 127.25 40.7485C127.419 40.5793 128.853 40.181 130.438 39.8633C132.146 39.5206 133.395 39.0879 133.505 38.7997C133.918 37.7225 128.789 33.5458 124.354 31.3481L121.528 29.948L118.532 23.6888C116.885 20.2462 114.839 16.3792 113.985 15.0954C110.052 9.17867 101.656 3.28342 97.1637 3.28342C96.638 3.28342 95.5188 2.89381 94.6771 2.41773C91.1567 0.426608 89.0179 -0.240109 87.1598 0.0741508ZM95.4039 8.75884C95.4039 9.34083 97.1981 11.6226 97.5061 11.4323C97.9738 11.1431 97.9131 9.40403 97.4179 8.90886C96.9592 8.45014 95.4039 8.33416 95.4039 8.75884ZM3.04467 42.9576C1.04556 43.6754 0.962913 44.1289 0.957357 54.4158L0.952148 63.7047H3.20927H5.46638L5.4702 55.2839L5.47402 46.8632L9.03402 54.6655C12.9871 63.329 13.5531 64.0534 16.3693 64.0506C18.9185 64.0485 19.6911 63.2481 21.9392 58.2824C26.7031 47.7591 26.7732 47.6219 27.0399 48.2997C27.1799 48.6557 27.3052 52.2674 27.3188 56.3257L27.3431 63.7047H29.6002H31.8573V54.6651C31.8573 44.1904 31.7403 43.6042 29.5196 42.9385C27.6966 42.3923 26.5402 42.4135 25.0908 43.0188C23.7536 43.5778 22.8142 45.2453 18.6396 54.4696L16.2974 59.645L15.4425 57.9421C14.9723 57.0053 13.8445 54.52 12.9357 52.4191C10.6189 47.0621 9.13576 44.1939 8.28605 43.4268C7.37903 42.608 4.68959 42.367 3.04467 42.9576ZM64.3473 43.2598C62.4659 43.7008 60.8158 45.0495 60.3203 46.551C59.6855 48.4733 60.0456 51.3722 61.055 52.4667C62.4881 54.0206 63.9639 54.4255 69.0692 54.6651C72.0524 54.8051 74.0081 55.0492 74.3376 55.3228C74.9544 55.8347 75.4152 58.1647 75.0978 59.1651C74.7471 60.2704 72.8139 60.5753 66.1481 60.5774L59.9845 60.5795V62.1421V63.7047H66.9124C74.986 63.7047 76.7594 63.4179 78.6165 61.8129L79.9513 60.659V57.7039C79.9513 55.3214 79.8273 54.6124 79.312 54.0429C77.9848 52.5764 76.3482 52.1406 71.0964 51.8559C66.4613 51.6045 66.0106 51.5205 65.4252 50.7989C64.9213 50.1776 64.8369 49.6877 65.0196 48.439C65.1467 47.5722 65.3828 46.7256 65.5443 46.5579C65.7061 46.3899 69.0529 46.1721 72.9816 46.0742L80.1249 45.8957V44.3828V42.8698L72.9195 42.9045C68.9567 42.924 65.0991 43.0837 64.3473 43.2598ZM89.327 43.0254C89.136 43.1007 88.2311 43.2636 87.3157 43.3868C85.1433 43.6799 83.4943 45.0984 82.913 47.1743C82.6237 48.2077 82.5234 50.5874 82.606 54.446C82.7175 59.6246 82.8001 60.277 83.4602 61.1618C84.9937 63.2189 85.9885 63.5002 92.2595 63.6516L97.986 63.7898L99.8521 65.3101C101.667 66.7883 101.786 66.83 104.193 66.83H106.668L104.66 64.801L102.652 62.7717L103.528 62.198C104.93 61.2792 105.197 59.6409 105.07 52.7487C104.935 45.536 104.767 45.0356 102.059 43.8046C100.668 43.1726 99.6774 43.0556 95.0566 42.9785C92.0963 42.9288 89.518 42.95 89.327 43.0254ZM107.68 43.3987C107.561 43.7081 107.538 47.5049 107.628 51.8361C107.819 60.9649 107.94 61.4111 110.587 62.7144C112.151 63.4846 112.686 63.5377 119.972 63.6467L127.698 63.7624V62.197V60.6316L120.765 60.5187C114.669 60.4194 113.757 60.3312 113.212 59.7867C112.664 59.2388 112.573 58.2356 112.419 51.1055L112.245 43.0434L110.071 42.9399C108.323 42.8566 107.853 42.9469 107.68 43.3987ZM88.671 46.8743C87.8661 47.6792 87.6835 49.3113 87.8165 54.512C87.9317 59.003 87.9811 59.2874 88.7579 59.9159C89.3961 60.4326 90.1264 60.5778 92.0567 60.5722L94.5357 60.5652L92.7995 59.0231L91.0632 57.481L93.7044 57.4674C96.1977 57.4549 96.4348 57.5223 97.9374 58.6696C98.8128 59.3381 99.6851 59.885 99.8761 59.885C100.446 59.885 100.69 57.1084 100.561 52.0743C100.453 47.8577 100.364 47.2726 99.7649 46.835C98.7531 46.0954 89.4166 46.1287 88.671 46.8743ZM52.2255 52.5059C52.1023 54.3682 52.0005 56.9462 51.9995 58.2356L51.9977 60.5795H46.8275C39.7812 60.5795 40.0541 60.8246 39.9044 54.3606L39.7916 49.4675H37.5296H35.2676L35.3854 54.7794C35.4836 59.2075 35.609 60.2524 36.1382 61.059C37.1608 62.6182 39.2172 63.3412 42.6554 63.3498C44.2971 63.354 47.071 63.4589 48.819 63.5832C51.9696 63.8068 51.9977 63.8169 51.9977 64.7291C51.9977 66.2001 51.414 66.4827 48.369 66.4841C46.8314 66.4848 43.3471 66.5872 40.6253 66.7115L35.677 66.938V68.469V70L44.0978 69.8906C52.3387 69.784 52.5519 69.7632 54.0812 68.9117C56.7294 67.4373 56.8582 66.9025 56.8585 57.3674L56.8592 49.1203H54.6545H52.4499L52.2255 52.5059ZM131.132 57.9751C128.226 59.5544 129.517 64.052 132.876 64.052C134.487 64.052 135.529 63.3193 136.016 61.8438C136.973 58.9446 133.87 56.4868 131.132 57.9751ZM132.559 58.7464C133.831 58.9745 134.117 59.3971 134.165 61.1177C134.212 62.8418 133.948 63.039 133.141 61.8817L132.596 61.1004L132.578 61.8817C132.567 62.3366 132.342 62.663 132.039 62.663C131.643 62.663 131.518 62.2338 131.518 60.8844C131.518 59.3426 131.448 59.1631 130.997 59.5377C129.321 60.9285 131.619 63.8297 133.754 63.0182C136.217 62.0817 135.435 58.4304 132.795 58.5432C131.85 58.5838 131.816 58.613 132.559 58.7464ZM132.559 60.2322C132.559 60.4232 132.716 60.5795 132.907 60.5795C133.098 60.5795 133.254 60.4232 133.254 60.2322C133.254 60.0412 133.098 59.885 132.907 59.885C132.716 59.885 132.559 60.0412 132.559 60.2322Z" fill="url(#paint0_linear_2045_1324)"/>
<defs>
<linearGradient id="paint0_linear_2045_1324" x1="0.952148" y1="35" x2="136.193" y2="35" gradientUnits="userSpaceOnUse">
<stop stop-color="#11E9E3" stop-opacity="0.6"/>
<stop offset="1" stop-color="#86239B"/>
</linearGradient>
</defs>
</svg>
