<svg width="115" height="70" viewBox="0 0 115 70" fill="none" xmlns="http://www.w3.org/2000/svg">
<path fill-rule="evenodd" clip-rule="evenodd" d="M77.1313 0.0873438C77.0528 0.135257 76.9522 0.229832 76.9078 0.2975C76.831 0.414735 76.8261 0.828523 76.8049 9.03651L76.7825 17.6525L76.6596 17.7754C76.4246 18.0104 76.3548 17.9842 74.7572 17.0599C73.9629 16.6003 73.2125 16.1913 73.0898 16.1512C72.7976 16.0556 72.4222 16.0892 72.1314 16.237C71.4794 16.5683 60.9376 22.6888 60.8135 22.8081C60.7327 22.8857 60.6121 23.0603 60.5454 23.1959L60.4241 23.4425V30.0619V36.6813L60.5805 36.9856C60.6678 37.1555 60.8061 37.3443 60.8934 37.4127C60.9794 37.4802 61.8845 38.017 62.9047 38.6057C63.9249 39.1944 66.4088 40.6287 68.4245 41.7929C70.4403 42.9572 72.1901 43.945 72.313 43.9881C72.5957 44.0871 72.8336 44.0873 73.1188 43.9887C73.2424 43.9459 75.8357 42.4733 78.8817 40.7162C82.8013 38.4551 84.4768 37.4657 84.6145 37.3308C84.7215 37.2259 84.8535 37.0449 84.9077 36.9285L85.0064 36.7169V20.6491V4.58117L84.8896 4.33534C84.8254 4.20014 84.7004 4.01819 84.6119 3.93094C84.5225 3.84289 83.849 3.43644 83.0973 3.01688C77.5868 -0.058854 77.6962 -7.97711e-05 77.4791 9.90093e-05C77.3549 0.000188399 77.2179 0.0345589 77.1313 0.0873438ZM12.3545 15.8596C11.9377 16.0329 1.11282 22.2973 0.943251 22.4634C0.849526 22.5553 0.728849 22.7125 0.675081 22.813L0.577377 22.9955V31.8084V40.6212L0.669405 40.7474C0.80711 40.9363 1.12302 41.0849 1.31485 41.051C1.52925 41.0131 8.07856 37.2591 8.32456 37.033C8.43111 36.9351 8.56184 36.7737 8.61508 36.6743L8.71188 36.4935L8.73423 32.1804L8.75658 27.8673L8.87301 27.6191C8.94081 27.4745 9.0715 27.2999 9.18588 27.201C9.36497 27.0463 11.5596 25.7504 12.1975 25.4228C12.5272 25.2535 12.922 25.2088 13.2104 25.3082C13.5173 25.4139 16.3366 27.0588 16.519 27.2385C16.6092 27.3275 16.7299 27.4954 16.7871 27.6115L16.8911 27.8226L16.9134 32.1357L16.9358 36.4488L17.0547 36.6722C17.1201 36.7952 17.2408 36.9595 17.3229 37.0376C17.4959 37.202 24.0568 40.9666 24.2757 41.0271C24.5515 41.1032 24.8853 40.945 25.0239 40.6725C25.0691 40.5835 25.0842 38.7858 25.0979 31.8675C25.1145 23.428 25.1125 23.1672 25.0303 22.9311C24.9737 22.7683 24.8772 22.6206 24.7384 22.4841C24.5824 22.3309 23.1962 21.5135 19.1405 19.1836C16.1757 17.4804 13.6334 16.0237 13.4909 15.9465C13.1565 15.7655 12.6705 15.7283 12.3545 15.8596ZM102.393 15.9739C102.294 16.005 102.144 16.0671 102.058 16.1119C101.93 16.1784 96.2083 19.4754 91.9565 21.9326C91.428 22.2381 90.9284 22.5519 90.8463 22.63C90.7642 22.7082 90.6435 22.8726 90.5781 22.9955L90.4592 23.219V29.9009V36.5829L90.5786 36.8091C90.6443 36.9336 90.7769 37.1067 90.8732 37.1937C90.9695 37.2807 92.1426 37.9758 93.4802 38.7384C94.8177 39.501 97.2797 40.905 98.9513 41.8584C100.623 42.8119 102.086 43.629 102.203 43.6742C102.474 43.7788 102.846 43.7792 103.119 43.6754C103.388 43.5728 109.865 39.9749 110.006 39.8494C110.395 39.5039 110.292 38.9918 109.773 38.6884C109.622 38.6004 107.086 37.1438 104.136 35.4514C99.8415 32.9877 98.7525 32.3449 98.6719 32.2261L98.5714 32.0778V29.9009V27.7241L98.6734 27.5722C98.8264 27.3443 102.306 25.336 102.594 25.3095C102.782 25.2922 102.848 25.3217 103.6 25.755C104.042 26.0103 104.874 26.4894 105.447 26.8197C106.128 27.2113 106.524 27.467 106.587 27.5544C106.681 27.6851 106.684 27.7342 106.706 29.4784C106.731 31.4608 106.723 31.4095 107.032 31.604C107.143 31.6737 107.23 31.6896 107.421 31.6754C107.651 31.6584 107.88 31.5331 111.038 29.6973C112.936 28.5937 114.476 27.6698 114.563 27.5827C114.648 27.4977 114.771 27.3157 114.835 27.1784L114.952 26.9287V25.0962V23.2637L114.831 23.0174C114.765 22.8818 114.644 22.7073 114.563 22.6295C114.342 22.4168 103.333 16.0413 103.065 15.9701C102.795 15.8987 102.628 15.8996 102.393 15.9739ZM42.3438 16.0611C42.0217 16.1763 31.1189 22.5018 30.9456 22.674C30.8515 22.7675 30.728 22.9385 30.6712 23.0539L30.5678 23.2637V29.9009V36.5382L30.6886 36.7672C30.7551 36.8932 30.8792 37.0621 30.9645 37.1425C31.1378 37.306 41.9775 43.5872 42.3119 43.7179C42.5682 43.8181 42.936 43.8252 43.1922 43.7347C43.2957 43.6982 45.865 42.235 48.9019 40.4832C52.8492 38.2061 54.4784 37.2437 54.6162 37.1075C54.7347 36.9903 54.8444 36.8221 54.9012 36.6701C54.9931 36.4245 54.9937 36.3844 54.9937 29.9297C54.9937 22.7032 55.0139 23.1744 54.686 22.7638C54.5294 22.5678 54.0178 22.2624 48.9435 19.3364C45.8796 17.5697 43.2974 16.0974 43.2053 16.0645C42.994 15.9891 42.55 15.9873 42.3438 16.0611ZM70.6877 26.524C69.6464 27.1249 68.7565 27.651 68.7101 27.693C68.6294 27.766 68.6257 27.8709 68.6257 30.0558C68.6257 31.8147 68.6385 32.3595 68.6815 32.4177C68.7521 32.5133 72.5982 34.728 72.6937 34.728C72.7891 34.728 76.6337 32.5134 76.7043 32.4178C76.7472 32.3596 76.7602 31.8173 76.7602 30.0691V27.7962L76.6596 27.6972C76.4952 27.5354 72.809 25.4314 72.6899 25.4314C72.6289 25.4314 71.7465 25.9129 70.6877 26.524ZM101.566 27.7581C100.964 28.1031 100.436 28.427 100.393 28.4777C100.322 28.5608 100.314 28.6952 100.314 29.8364C100.314 31.0872 100.316 31.1041 100.415 31.2128C100.529 31.3375 102.599 32.5379 102.7 32.5379C102.77 32.5379 104.839 31.3656 104.975 31.2497C105.047 31.1874 105.053 31.0745 105.042 29.8158L105.03 28.4496L103.935 27.818C103.333 27.4706 102.799 27.1739 102.75 27.1585C102.685 27.1385 102.355 27.3059 101.566 27.7581ZM56.6474 41.8806C56.5368 41.9038 56.3859 41.946 56.3122 41.9745C56.2384 42.003 53.7645 43.4156 50.8147 45.1135C45.0138 48.4525 45.1338 48.3759 44.8382 48.9238C44.5673 49.4258 44.5797 49.0891 44.5797 55.9358C44.5797 62.7825 44.5672 62.4443 44.8382 62.949C45.0945 63.4265 45.3856 63.6459 46.9487 64.5396C49.186 65.8189 49.6148 65.984 50.7029 65.9853C51.4467 65.9862 51.7773 65.9211 52.312 65.6681C52.7922 65.4409 53.2207 65.0042 53.4632 64.4949C53.8353 63.7131 53.8056 64.318 53.8206 57.2138L53.834 50.8936L53.7356 50.7889C53.6398 50.687 53.6168 50.6842 52.8714 50.6842C52.2806 50.6842 52.0858 50.6986 52.0188 50.7476C51.9338 50.8097 51.9316 50.9379 51.9097 56.9267L51.8873 63.0423L51.7719 63.2884C51.6252 63.6013 51.4171 63.809 51.1054 63.9538C50.7798 64.1051 50.2812 64.1081 49.8537 63.9614C49.504 63.8413 46.5634 62.1521 46.5009 62.0354C46.4727 61.9826 46.4569 59.7911 46.4569 55.9214C46.4569 50.2414 46.4614 49.8842 46.5351 49.7982C46.6036 49.7182 56.55 43.9547 56.943 43.7673C57.083 43.7006 57.1062 43.7008 57.2521 43.7704C57.6549 43.9625 67.5846 49.7161 67.6535 49.7974C67.7272 49.8842 67.7318 50.2424 67.7318 55.9358C67.7318 61.629 67.7272 61.9875 67.6535 62.0751C67.5438 62.2056 57.2087 68.1599 57.092 68.1599C57.0395 68.1599 56.3817 67.7952 55.6302 67.3493C54.8788 66.9035 54.2277 66.5292 54.1833 66.5177C54.1386 66.506 53.9277 66.5913 53.7101 66.7091C53.4942 66.826 53.0876 67.009 52.8065 67.1158C52.5254 67.2226 52.2798 67.3352 52.2607 67.366C52.2417 67.3968 52.2517 67.4604 52.2829 67.5074C52.3561 67.6176 56.0133 69.7851 56.325 69.903C56.6842 70.0389 57.5572 70.0303 57.8988 69.8876C58.1002 69.8035 68.3533 63.9076 68.648 63.7065C68.8632 63.5597 69.2091 63.1709 69.3354 62.934C69.6199 62.4001 69.6076 62.7167 69.6076 55.9358C69.6076 49.2256 69.617 49.4866 69.3589 48.9774C69.2268 48.7166 68.8603 48.3085 68.6229 48.1577C67.9425 47.7256 58.0037 42.0252 57.8151 41.959C57.5336 41.8601 56.9366 41.82 56.6474 41.8806ZM72.7153 47.3927C71.9886 47.5838 71.421 48.1368 71.2422 48.8275C70.9416 49.989 71.6914 51.1204 72.8938 51.3196C73.4732 51.4156 74.1375 51.1926 74.5672 50.758C74.9924 50.3278 75.1574 49.9339 75.1595 49.3433C75.1625 48.4921 74.6616 47.765 73.865 47.4646C73.5489 47.3453 73.0208 47.3123 72.7153 47.3927ZM72.7057 47.7544C72.265 47.8921 71.8947 48.2073 71.6791 48.6282C71.5658 48.8495 71.5532 48.9187 71.5532 49.3219C71.5532 49.7381 71.5636 49.7909 71.7004 50.0687C71.9895 50.6562 72.5045 50.9696 73.1856 50.9728C73.5276 50.9744 73.5971 50.9596 73.8637 50.8283C74.4696 50.53 74.809 49.9889 74.8093 49.321C74.8094 48.9378 74.728 48.6864 74.494 48.3475C74.1419 47.8377 73.3159 47.5637 72.7057 47.7544ZM72.4247 49.3433V50.4607H72.6482H72.8717V50.0137V49.5668H73.0866C73.404 49.5668 73.4455 49.6168 73.5037 50.0696L73.5541 50.4607H73.7975C74.0393 50.4607 74.0407 50.4599 74.0158 50.3378C74.0019 50.2701 73.9691 50.0741 73.9427 49.902C73.8956 49.5946 73.806 49.388 73.7199 49.388C73.6425 49.388 73.6734 49.3055 73.7613 49.2776C73.8685 49.2436 73.9891 48.9944 73.9891 48.807C73.9891 48.591 73.8671 48.3759 73.6995 48.2964C73.5886 48.2438 73.4081 48.2259 72.9879 48.2259H72.4247V49.3433ZM72.8717 48.8686V49.1645H73.0981C73.4135 49.1645 73.4976 49.11 73.4967 48.906C73.4957 48.6563 73.4485 48.6145 73.1434 48.5924L72.8717 48.5728V48.8686ZM58.9085 50.4205C56.915 50.6306 55.6126 51.5171 55.2367 52.9197C55.1313 53.313 55.1312 54.1331 55.2366 54.5279C55.49 55.4772 56.165 56.0954 57.3549 56.4681C57.8653 56.6279 58.7414 56.7841 59.7537 56.8955C62.0058 57.1435 62.8931 57.3868 63.2358 57.85C63.3156 57.9578 63.3292 58.0395 63.3287 58.4087C63.3283 58.7653 63.3113 58.8723 63.2319 59.0198C63.008 59.436 62.5283 59.73 61.832 59.8778C61.5172 59.9446 61.2416 59.9581 60.223 59.9569C59.138 59.9555 58.9429 59.9442 58.5592 59.8601C57.4552 59.6182 56.9711 59.1441 56.7856 58.1234C56.7102 57.7085 56.6927 57.7013 55.7709 57.7013C54.8195 57.7013 54.8149 57.7037 54.8149 58.1948C54.8149 58.8328 55.0121 59.4817 55.3692 60.0189C55.9854 60.9457 57.0982 61.5107 58.7808 61.7509C59.5245 61.8571 61.155 61.8585 61.765 61.7535C63.5213 61.4512 64.6262 60.777 65.1341 59.6976C65.3428 59.2538 65.4191 58.8651 65.416 58.26C65.4142 57.9216 65.3871 57.6246 65.3424 57.4555C65.0411 56.3144 64.1861 55.6957 62.3848 55.3154C62.0918 55.2535 61.219 55.1106 60.4453 54.9977C58.5237 54.7175 57.7886 54.5438 57.4725 54.2951C57.0943 53.9976 57.1615 53.1276 57.5908 52.7647C58.0839 52.3477 59.078 52.1728 60.4962 52.2537C62.0078 52.3399 62.6472 52.7401 62.9812 53.8093C63.1553 54.3665 63.1219 54.3492 64.0184 54.3492C64.4343 54.3492 64.8071 54.3366 64.8469 54.3214C65.0117 54.2582 65.0456 54.0863 64.9801 53.6457C64.6882 51.682 63.3764 50.6461 60.8934 50.4187C60.3069 50.3649 59.4275 50.3657 58.9085 50.4205Z" fill="url(#paint0_linear_2045_1320)"/>
<defs>
<linearGradient id="paint0_linear_2045_1320" x1="0.577377" y1="35" x2="114.952" y2="35" gradientUnits="userSpaceOnUse">
<stop stop-color="#11E9E3" stop-opacity="0.6"/>
<stop offset="1" stop-color="#86239B"/>
</linearGradient>
</defs>
</svg>
