<svg width="69" height="70" viewBox="0 0 69 70" fill="none" xmlns="http://www.w3.org/2000/svg">
<path fill-rule="evenodd" clip-rule="evenodd" d="M46.8886 0.0264516C45.2019 0.263839 43.8007 0.519341 42.7124 0.788053C41.5434 1.07677 41.3536 1.09186 40.5738 0.958387C40.1031 0.877875 38.5215 0.780756 37.0592 0.742513C34.888 0.685776 34.1613 0.712823 33.0964 0.889826C31.4996 1.15539 29.8374 1.67797 28.5846 2.30824L27.641 2.78288L26.0373 2.31604C22.5711 1.30711 19.8064 0.895235 16.5705 0.905928C12.4926 0.919515 9.80091 1.63319 7.13267 3.40862C2.09282 6.7621 -0.123676 13.6759 1.16327 22.029C2.10829 28.1632 4.20364 36.0285 6.32603 41.4085C7.88546 45.3615 9.4371 48.0035 11.2766 49.8385C13.0354 51.5929 14.6072 52.2638 16.6334 52.125C17.691 52.0526 18.7952 51.6593 19.7119 51.0287L20.2941 50.6281L20.8661 51.1555C22.3534 52.5264 25.8196 53.3681 28.6789 53.0527C29.7139 52.9385 30.4085 52.7805 31.8681 52.3272C32.0455 52.2721 32.0797 52.5382 32.1561 54.5702C32.326 59.0907 32.6194 61.2319 33.3834 63.5284C33.9639 65.2733 34.3183 66.0164 35.0881 67.1021C36.0792 68.5 37.5502 69.4392 39.3889 69.8483C41.2158 70.2548 44.4213 69.8196 46.8237 68.8391C51.755 66.8266 53.9728 62.2804 54.5006 53.1019C54.5762 51.7873 54.6498 50.6283 54.6643 50.5264C54.6854 50.3765 54.9797 50.3363 56.2022 50.316C59.0067 50.2697 61.3802 49.7826 63.3514 48.8488C65.7167 47.7283 67.6182 46.1617 68.3341 44.7434C68.6674 44.0832 68.715 43.8578 68.714 42.9471C68.7129 42.0228 68.6706 41.832 68.338 41.2522C67.5174 39.8214 66.012 39.2859 63.8089 39.6414C61.9078 39.9481 60.2963 40.1332 60.217 40.0539C60.1769 40.0138 60.4351 39.4645 60.7908 38.8334C61.8961 36.8726 63.8767 32.6923 64.7292 30.5206C66.3146 26.4816 67.4885 22.3961 68.0908 18.821C68.4643 16.6044 68.5604 13.1071 68.2903 11.5614C67.8719 9.16617 67.1815 7.95206 65.0145 5.79985C62.1809 2.98605 58.9272 1.27415 54.7087 0.378066C53.3604 0.0914908 52.8279 0.0482152 50.2224 0.0131166C48.5964 -0.008647 47.0962 -0.00273434 46.8886 0.0264516ZM47.958 1.92228C46.6035 2.01927 44.3974 2.39076 43.0559 2.74791C41.3232 3.2091 41.2032 3.21476 39.5922 2.91158C38.0953 2.62991 34.5264 2.58072 33.2392 2.82402C31.8404 3.08846 30.0339 3.71985 29.0152 4.30043C28.4779 4.60663 27.96 4.8571 27.864 4.8571C27.768 4.8571 27.1489 4.68135 26.4881 4.46648C19.9136 2.32924 13.5196 2.24559 9.55409 4.24507C5.95026 6.06215 3.8992 9.1278 3.08589 13.9133C2.79114 15.6481 2.79441 19.4531 3.09243 21.3371C4.19269 28.2926 6.46592 36.5637 8.72657 41.8368C11.3446 47.9435 14.2387 50.6972 17.1493 49.8511C18.1794 49.5517 19.0644 48.8542 20.4476 47.2521C23.1462 44.1265 25.3682 41.7111 25.495 41.7656C26.7879 42.3196 27.4258 42.5181 28.2955 42.6367C28.8696 42.715 29.3394 42.8202 29.3394 42.8705C29.3394 42.9772 28.1196 44.47 27.8348 44.712C27.432 45.0543 26.5589 45.372 25.0104 45.7399C23.0472 46.2063 22.2794 46.5266 21.7904 47.0837C21.1467 47.8169 21.3266 48.9038 22.2 49.5586C23.3965 50.4557 25.0995 50.8945 27.3894 50.8958C29.6892 50.8971 31.2066 50.4328 32.9368 49.1982L33.7424 48.6232V51.1901C33.7424 56.0622 34.0959 60.873 34.5716 62.4738C34.8463 63.3986 35.4869 64.6496 36.1105 65.4795C38.015 68.0136 40.8472 68.6845 44.8758 67.5556C46.7796 67.0222 48.0036 66.3559 49.1016 65.2553C51.0923 63.26 51.4872 61.7462 52.7585 51.2365L53.1668 47.8615L53.4872 47.9442C53.6635 47.9896 54.6079 48.0568 55.586 48.0934C58.987 48.2208 61.9347 47.4544 64.3121 45.8248C65.6666 44.8962 66.7023 43.648 66.7023 42.9441C66.7023 42.0793 65.9964 41.4653 65.0021 41.4653C64.7546 41.4653 63.8894 41.5882 63.0797 41.7383C60.6541 42.1881 57.693 42.1188 56.8899 41.5935C56.6721 41.4511 56.5874 41.6252 58.0226 39.2637C61.7294 33.1645 64.7988 25.1839 65.9577 18.6323C66.3404 16.4691 66.432 12.9481 66.1429 11.5165C65.7903 9.77027 65.373 9.06326 63.7017 7.3808C61.5758 5.24054 59.3272 3.82691 56.6239 2.9312C54.0817 2.08884 50.865 1.71433 47.958 1.92228ZM47.1582 3.85811C46.0639 3.98517 44.5613 4.23752 44.5613 4.29414C44.5613 4.31791 45.1132 4.6265 45.7879 4.97975C49.8358 7.10001 53.2391 10.6798 55.5113 15.2075C55.9202 16.0222 56.4055 17.1827 56.5897 17.7864C56.9021 18.8101 56.9194 18.9899 56.8464 20.4565C56.8034 21.3213 56.6545 22.7649 56.5153 23.6644C56.2137 25.6167 56.1933 27.4138 56.4499 29.456C56.986 33.7225 56.7905 35.9418 55.6702 38.3038C55.2705 39.1465 55.2485 39.2489 55.4282 39.4285C55.5369 39.5372 55.6471 39.6013 55.673 39.5707C56.0812 39.0908 58.244 35.1504 59.2222 33.1044C63.3189 24.5358 65.3904 15.2732 64.1395 11.1168C63.8953 10.3054 63.2539 9.47274 61.8666 8.16642C59.3587 5.80513 56.2963 4.41264 52.5118 3.91271C51.0129 3.71469 48.6048 3.69016 47.1582 3.85811ZM33.5537 4.67317C31.0206 5.14782 29.0574 6.15096 27.3814 7.82701C25.0605 10.1478 23.3831 14.0352 22.7349 18.5941C22.4633 20.5048 22.4183 20.3988 23.3108 19.9482C26.5681 18.304 30.1473 18.0816 31.9484 19.4114C33.1771 20.3187 33.7195 21.3597 34.1646 23.6644C35.1919 28.9834 34.9261 32.3117 33.1396 36.5045C32.3853 38.2748 31.3522 41.0438 31.3522 41.2953C31.3522 41.3196 31.6808 41.3395 32.0823 41.3395C33.3946 41.3395 34.6703 42.2319 35.2977 43.5885C35.5581 44.1516 35.569 44.3805 35.6465 50.8375C35.7511 59.5598 35.9047 61.1229 36.8513 63.0976C38.3109 66.1427 40.7051 66.9183 44.75 65.6562C48.0371 64.6307 49.2033 63.0535 49.8937 58.7C50.3975 55.5231 51.2883 48.1695 51.471 45.6796C51.6583 43.1256 52.0734 42.3117 53.5627 41.5785L54.3778 41.1772L54.0612 40.7866C53.4184 39.9935 52.1186 37.9874 51.8674 37.4001C51.7248 37.067 51.0456 35.765 50.358 34.5067C46.1325 26.7746 45.3863 22.1822 47.9637 19.7713C49.1831 18.6307 50.8143 18.153 53.2731 18.2164L54.7632 18.2549L54.6859 17.9482C54.5199 17.2887 53.3416 14.9791 52.5783 13.8169C49.3551 8.90941 45.2076 5.97195 39.9164 4.8493C38.2779 4.50171 34.9592 4.40987 33.5537 4.67317ZM14.4948 4.73784C10.0284 5.29639 7.06147 7.49125 5.68885 11.2521C4.84082 13.5758 4.46354 17.2997 4.79981 20.0273C5.34239 24.4279 7.00033 31.369 8.76343 36.6219C10.9086 43.013 13.0656 46.8311 15.1241 47.8813C15.861 48.2572 16.7043 48.1817 17.4251 47.6751C17.7123 47.4732 18.7069 46.4322 19.6352 45.3616C20.5633 44.291 21.8791 42.7989 22.5589 42.0457L23.795 40.6762L23.0321 39.8442C21.0522 37.6851 20.098 34.7579 20.4151 31.8164C20.7343 28.8563 20.8029 27.2222 20.7016 24.9853C20.5764 22.2216 20.6119 20.8126 20.8597 18.6952C21.4021 14.0634 23.0155 10.0299 25.4892 7.12164L26.1846 6.30406L25.7197 6.14304C24.8201 5.83155 21.7138 5.11876 20.4075 4.9239C18.7533 4.6772 15.738 4.58235 14.4948 4.73784ZM50.8514 20.2587C49.7547 20.563 49.1163 21.0546 48.6345 21.9661C48.4506 22.3139 48.4019 22.6836 48.4024 23.7273C48.4035 25.9245 49.1519 28.1066 51.3709 32.3833C53.774 37.0149 53.9335 37.3122 54.0142 37.3131C54.1583 37.3145 54.519 36.2672 54.7002 35.3214C54.9417 34.0607 54.9202 32.4992 54.6254 29.8916C54.3001 27.0135 54.3099 25.9752 54.6883 23.2241C55.0589 20.5302 55.0691 20.2572 54.8038 20.1554C54.4473 20.0187 51.4326 20.0974 50.8514 20.2587ZM27.0749 20.5714C26.4868 20.7028 25.5828 20.9873 25.066 21.2037C23.9792 21.6587 22.5736 22.4553 22.5139 22.6501C22.4914 22.7236 22.5106 23.6329 22.5567 24.6708C22.6475 26.7146 22.5257 29.885 22.2844 31.7568C21.7733 35.7237 24.0156 39.4764 27.5599 40.5859C27.9997 40.7237 28.6246 40.8363 28.9485 40.8363H29.5375L29.9586 39.5468C30.1902 38.8377 30.7726 37.3332 31.2529 36.2036C31.7332 35.0741 32.2744 33.6022 32.4556 32.9328C32.7613 31.8028 32.7851 31.5263 32.7868 29.0738C32.7887 26.4228 32.6783 25.371 32.1576 23.0821C31.6385 20.7994 29.8994 19.9404 27.0749 20.5714ZM50.7846 21.2191C50.4082 21.3285 49.845 21.7624 49.845 21.9429C49.845 22.1474 50.2582 22.6072 50.6012 22.7845C51.3387 23.166 52.1664 22.9493 52.7863 22.2125C53.1889 21.7341 53.1995 21.5357 52.8362 21.2813C52.5287 21.0658 51.4262 21.0325 50.7846 21.2191ZM27.987 21.775C27.3571 22.232 27.8498 23.2704 28.8838 23.6653C30.3581 24.2282 31.9004 22.6691 30.6113 21.9189C30.0192 21.5745 28.3868 21.4849 27.987 21.775ZM54.9295 43.0364C54.6585 43.1168 54.3045 43.2537 54.143 43.3405C53.462 43.7065 53.0669 45.6986 53.6169 45.993C54.1417 46.2739 55.8765 46.3889 57.3703 46.2418C59.2855 46.0531 60.4865 45.7375 61.8593 45.0619C62.9625 44.5188 64.2642 43.6397 64.1434 43.5191C64.1105 43.486 63.4696 43.5595 62.7196 43.6824C60.8624 43.9867 58.2217 43.9871 57.2044 43.6834C56.7892 43.5595 56.2184 43.3303 55.9359 43.1742C55.4805 42.9224 55.3666 42.9068 54.9295 43.0364ZM31.1119 43.8302C30.7252 44.2315 30.0539 44.9643 29.6203 45.4588C28.637 46.5801 27.8598 46.9819 25.6701 47.5013C24.7937 47.7093 23.9162 47.9411 23.7202 48.0168L23.3638 48.154L23.8313 48.3958C25.1799 49.0932 28.0471 49.2887 29.6539 48.7926C31.1713 48.3241 32.6106 47.2994 33.4473 46.0919C33.8803 45.4671 33.8228 44.5899 33.3045 43.9103C32.9848 43.4913 32.3387 43.1007 31.9651 43.1007C31.8826 43.1007 31.4987 43.429 31.1119 43.8302Z" fill="url(#paint0_linear_2045_1301)"/>
<defs>
<linearGradient id="paint0_linear_2045_1301" x1="0.804382" y1="35" x2="68.7141" y2="35" gradientUnits="userSpaceOnUse">
<stop stop-color="#11E9E3" stop-opacity="0.6"/>
<stop offset="1" stop-color="#86239B"/>
</linearGradient>
</defs>
</svg>
