<svg width="70" height="70" viewBox="0 0 70 70" fill="none" xmlns="http://www.w3.org/2000/svg">
<path fill-rule="evenodd" clip-rule="evenodd" d="M32.3348 0.0232436C29.5701 0.160725 26.8453 0.512688 24.8992 0.983621C21.6608 1.76731 19.8579 2.91062 18.9205 4.77496C18.6154 5.38176 18.37 6.24026 18.252 7.11379C18.1369 7.96547 18.1164 8.73521 18.1158 12.221L18.1152 15.7375H26.4707H34.8261V16.7724V17.8072L23.4332 17.8076C12.4435 17.8079 11.0318 17.8204 10.3235 17.9241C6.78805 18.4415 4.02086 20.3974 2.45755 23.4838C1.90142 24.5817 1.62741 25.3857 1.25709 27.0059C0.558338 30.0631 0.301964 31.9555 0.265093 34.3288C0.244242 35.6704 0.277127 36.5194 0.391919 37.6035C0.665425 40.1867 1.38756 43.585 2.02491 45.2882C3.49819 49.225 6.01026 51.3974 9.46941 51.7258C9.71847 51.7495 11.1354 51.7656 12.9668 51.7656H16.0455L16.0465 47.9807C16.0476 44.0573 16.0671 43.3486 16.196 42.5573C16.6941 39.4982 18.6503 36.7278 21.4497 35.1169C22.5477 34.4851 23.7123 34.0795 25.0717 33.8556C25.5683 33.7738 25.601 33.7735 34.8453 33.7506L44.1206 33.7277L44.5613 33.6433C45.3969 33.4834 46.0757 33.26 46.8035 32.9056C49.0147 31.8291 50.684 29.7464 51.2714 27.3317C51.5306 26.2661 51.5107 27.0202 51.5264 17.6539C51.5361 11.804 51.5277 9.02132 51.4994 8.70439C51.4103 7.70917 51.1715 6.8473 50.7347 5.9448C49.6562 3.71593 47.5717 1.97819 44.9254 1.10182C44.1454 0.843495 43.6361 0.723414 42.7175 0.58118C41.2788 0.358458 39.7584 0.192345 38.1031 0.0770557C37.1264 0.00902402 33.332 -0.0263908 32.3348 0.0232436ZM24.995 5.14555C23.8983 5.32201 22.9869 6.03977 22.5613 7.06205C22.2378 7.83914 22.2457 8.82911 22.5814 9.58593C22.8866 10.274 23.5105 10.8967 24.2001 11.2017C25.0347 11.5708 26.1297 11.5168 26.9306 11.067C28.7376 10.0522 29.0961 7.53934 27.6443 6.06587C27.0524 5.46516 26.3704 5.16352 25.5508 5.1398C25.3084 5.13279 25.0583 5.13535 24.995 5.14555ZM53.5969 22.0328C53.5842 26.1576 53.5827 26.2281 53.4979 26.7517C53.2497 28.2849 52.6975 29.708 51.8526 30.9919C51.3948 31.6877 50.9274 32.2484 50.2859 32.8713C49.4146 33.7174 48.6415 34.2608 47.5317 34.8071C46.5573 35.2868 45.6529 35.574 44.5448 35.7556C44.0459 35.8373 44.0081 35.8377 34.8069 35.8618C28.2363 35.879 25.5023 35.8984 25.3356 35.929C24.3945 36.1018 23.6406 36.3432 22.9091 36.706C20.2996 38 18.5056 40.5714 18.1915 43.4676C18.1626 43.7347 18.1534 46.4827 18.1614 52.5321C18.1721 60.7486 18.1764 61.2308 18.2423 61.5391C18.4948 62.7215 18.9374 63.6957 19.6285 64.5904C20.2034 65.3346 21.2493 66.2565 22.1971 66.8544C23.6909 67.7969 25.461 68.4972 27.8888 69.1062C32.8301 70.3458 37.2714 70.298 42.3575 68.9505C46.0501 67.9722 48.5129 66.5945 50.0249 64.6613C50.9151 63.5232 51.4059 62.199 51.4991 60.6837C51.5188 60.3637 51.5354 58.7005 51.536 56.9877L51.537 53.8736H43.1815H34.8261V52.8204V51.7672L47.7713 51.7557C59.9649 51.745 60.7398 51.7404 61.1189 51.6763C62.6568 51.4161 63.7329 50.8986 64.7161 49.9461C65.2439 49.4349 65.5116 49.1085 65.9508 48.4408C66.7004 47.3013 67.4176 45.6781 68.1735 43.4101C69.5542 39.2675 69.8305 35.5037 69.1075 30.6853C68.8945 29.2655 68.4483 27.1486 68.0739 25.781C66.6911 20.7308 64.3617 18.2483 60.6645 17.8846C60.429 17.8614 58.9133 17.8455 56.9387 17.8455H53.6099L53.5969 22.0328ZM43.584 58.1824C43.0136 58.3141 42.5229 58.5763 42.0851 58.9835C41.6341 59.4029 41.3476 59.8902 41.1794 60.5234C41.0666 60.9481 41.0693 61.659 41.1852 62.0949C41.4262 63.0008 42.0677 63.7786 42.8941 64.167C43.3944 64.4021 43.6864 64.4667 44.2355 64.4636C44.9762 64.4596 45.5755 64.2481 46.1545 63.7864C46.9217 63.1747 47.3343 62.3016 47.3343 61.29C47.3343 60.3699 47.0093 59.6085 46.3487 58.981C46.0015 58.6512 45.6413 58.436 45.1689 58.276C44.8533 58.1692 44.7509 58.1532 44.3122 58.142C43.981 58.1336 43.7368 58.1471 43.584 58.1824Z" fill="url(#paint0_linear_2045_1308)"/>
<defs>
<linearGradient id="paint0_linear_2045_1308" x1="0.259216" y1="35" x2="69.495" y2="35" gradientUnits="userSpaceOnUse">
<stop stop-color="#11E9E3" stop-opacity="0.6"/>
<stop offset="1" stop-color="#86239B"/>
</linearGradient>
</defs>
</svg>
