<svg width="79" height="70" viewBox="0 0 79 70" fill="none" xmlns="http://www.w3.org/2000/svg">
<path fill-rule="evenodd" clip-rule="evenodd" d="M21.8623 0.0844124C20.8208 0.303385 19.7769 0.776859 18.907 1.42492C18.5511 1.69003 17.8057 2.41954 17.524 2.77849C14.7174 6.35451 14.3003 12.7082 16.3169 21.1633C16.4007 21.5147 16.465 21.8021 16.4598 21.8021C16.4155 21.8021 14.8616 22.2809 14.2225 22.4915C8.94709 24.2297 4.89794 26.5167 2.56036 29.0785C0.782641 31.0267 -0.0712701 33.0849 0.00464946 35.2383C0.0433618 36.3367 0.280886 37.3002 0.760729 38.3056C2.49533 41.9401 6.99453 45.0545 13.8899 47.394C14.4619 47.588 16.4063 48.1937 16.4573 48.1937C16.4639 48.1937 16.4007 48.4811 16.3169 48.8325C14.6134 55.9746 14.6442 61.6604 16.4066 65.3967C16.7102 66.0403 17.1047 66.6832 17.524 67.2173C17.8057 67.5763 18.5511 68.3058 18.907 68.5709C19.789 69.2279 20.839 69.7003 21.8923 69.9139C22.3001 69.9966 22.3701 70 23.6827 70C24.8932 70 25.0959 69.992 25.4634 69.9293C29.3496 69.2665 33.9542 66.494 38.8248 61.8843C39.092 61.6314 39.323 61.4245 39.338 61.4245C39.3531 61.4245 39.5521 61.6017 39.7804 61.8183C44.6867 66.4743 49.3043 69.2632 53.2095 69.9293C53.5769 69.9919 53.7798 70 54.9846 70C56.1973 70 56.3838 69.9925 56.703 69.9306C59.1452 69.4572 61.0927 67.8699 62.2653 65.3972C64.025 61.6864 64.0568 55.8931 62.3561 48.8412C62.2726 48.4947 62.2064 48.2077 62.2091 48.2035C62.2118 48.1993 62.5125 48.1079 62.8772 48.0005C67.1388 46.7454 70.8968 45.0402 73.5212 43.1707C76.181 41.2759 77.8738 39.0961 78.4497 36.8243C78.6237 36.1376 78.658 35.8369 78.658 34.9979C78.658 34.1603 78.6237 33.8579 78.451 33.1766C77.805 30.6284 75.8056 28.252 72.5673 26.1836C70.0927 24.6029 66.734 23.1427 63.0854 22.0613C62.6618 21.9358 62.2904 21.8222 62.26 21.8088C62.2114 21.7876 62.2231 21.7082 62.356 21.1546C63.9252 14.6217 64.0233 9.21695 62.6403 5.49115C61.6223 2.74877 59.7487 0.890266 57.3155 0.2093C56.5684 0.000232379 56.4376 -0.0105133 54.8249 0.00467765L53.3548 0.0185735L52.8298 0.132785C52.19 0.271919 51.3798 0.504017 50.7869 0.717915C47.6196 1.86059 44.0236 4.24081 40.4292 7.57377C40.0762 7.90104 39.6864 8.26143 39.5628 8.37462L39.3382 8.58043L39.1473 8.40963C39.0424 8.31568 38.7152 8.01176 38.4202 7.73426C36.5877 6.0103 34.3858 4.26608 32.5986 3.12273C30.1021 1.52569 28.0326 0.609724 25.8432 0.132715L25.3181 0.0183635L23.7955 0.00821286C22.2919 -0.00179773 22.2678 -0.000817674 21.8623 0.0844124ZM23.393 3.34412C22.6041 3.3913 21.9023 3.58641 21.3629 3.90846C19.8085 4.83647 18.8918 6.79421 18.5731 9.86641C18.5009 10.5623 18.5122 13.1751 18.5911 14.0317C18.7289 15.5282 18.9638 17.1143 19.2677 18.5994C19.4125 19.3073 19.6732 20.4614 19.7669 20.8096L19.8059 20.9543L20.0944 20.8882C22.029 20.4447 25.3624 19.8817 27.7333 19.5979C28.6847 19.484 28.8916 19.4609 29.4659 19.4043C30.3694 19.3153 30.2768 19.3442 30.4493 19.0967C30.5326 18.9772 30.8546 18.5329 31.1649 18.1094C32.8806 15.768 34.709 13.5158 36.4626 11.5836C36.7149 11.3057 36.9213 11.0671 36.9213 11.0534C36.9213 11.023 35.7763 9.95304 35.1537 9.40176C31.3472 6.0312 27.6952 3.92208 24.8398 3.44528C24.5519 3.39722 23.6392 3.31213 23.5855 3.32834C23.5759 3.33128 23.4893 3.33835 23.393 3.34412ZM54.5624 3.35833C51.5137 3.57514 47.4089 5.8733 43.1039 9.77359C42.4898 10.3299 41.7516 11.0283 41.7516 11.0529C41.7516 11.0645 41.9578 11.3024 42.2099 11.5815C44.0436 13.6121 45.7953 15.772 47.5466 18.1619C47.8358 18.5566 48.1405 18.9772 48.2237 19.0967C48.3978 19.3467 48.2721 19.3113 49.3821 19.4227C51.3281 19.6179 53.6826 19.9479 55.6474 20.3007C56.4468 20.4443 58.1018 20.7751 58.5962 20.89L58.8673 20.9531L58.9029 20.8212C58.9712 20.5676 59.223 19.4699 59.3403 18.9145C59.7499 16.975 60.0248 15.011 60.1306 13.2699C60.1916 12.2654 60.1551 10.3361 60.0599 9.53389C59.6617 6.17905 58.462 4.16685 56.4929 3.55137C55.9497 3.38157 55.2372 3.31031 54.5624 3.35833ZM38.9423 13.9588C38.0744 14.9252 37.2118 15.9359 36.3558 16.9893C35.7621 17.72 34.787 18.9795 34.8028 18.9953C34.8108 19.0033 35.3577 18.9909 36.0181 18.9678C36.6785 18.9447 38.1718 18.9258 39.3365 18.9258C40.5012 18.9258 41.9944 18.9447 42.6548 18.9678C43.3153 18.9909 43.8618 19.0036 43.8694 18.9959C43.8948 18.9705 42.5381 17.2451 41.7004 16.2376C40.868 15.2363 39.3822 13.5416 39.3369 13.5416C39.3259 13.5416 39.1484 13.7293 38.9423 13.9588ZM36.0988 22.3976C34.8624 22.4435 32.1914 22.5941 32.1746 22.6189C29.7488 26.2019 27.5424 29.9658 25.6489 33.7513C25.3226 34.4036 25.0556 34.9646 25.0556 34.9979C25.0556 35.0312 25.3226 35.5922 25.6489 36.2445C27.4255 39.7963 29.4378 43.2626 31.6818 46.6361C31.9507 47.0404 32.1725 47.3734 32.1746 47.3761C32.2008 47.4094 34.8746 47.5525 36.3963 47.602C37.8196 47.6482 42.2457 47.6257 43.4317 47.5661C44.3603 47.5195 45.879 47.4301 46.2322 47.4014L46.4949 47.38L46.8953 46.7805C48.629 44.1843 50.1763 41.6127 51.7103 38.7781C52.3532 37.5902 53.6173 35.0844 53.6173 34.9979C53.6173 34.9115 52.3532 32.4057 51.7103 31.2177C50.1988 28.4247 48.7024 25.931 47.0263 23.4122C46.738 22.9791 46.4995 22.6211 46.4962 22.6168C46.4876 22.6054 44.3948 22.4763 43.4667 22.43C42.5018 22.3817 37.159 22.3583 36.0988 22.3976ZM26.8582 23.1701C25.1601 23.4118 23.5397 23.6869 22.1352 23.9717C20.9928 24.2034 20.7504 24.2588 20.7504 24.2879C20.7504 24.3614 21.6501 26.9705 21.9788 27.8502C22.2969 28.7015 22.9112 30.258 23.1472 30.8109C23.2182 30.9771 23.1922 31.0101 23.5846 30.2551C24.5198 28.4562 26.0522 25.7999 27.3266 23.7687C27.5599 23.3968 27.7508 23.0858 27.7508 23.0774C27.7508 23.05 27.5682 23.069 26.8582 23.1701ZM50.9221 23.0754C50.9221 23.0854 51.1713 23.4921 51.4759 23.9792C52.7501 26.0168 54.1352 28.4271 55.1393 30.354C55.3081 30.6779 55.458 30.9299 55.4725 30.914C55.5403 30.8396 56.4685 28.4838 56.9268 27.2231C57.2279 26.3948 57.9333 24.2864 57.9154 24.2684C57.8938 24.2468 56.5124 23.9579 55.6824 23.8015C53.9868 23.4819 50.9221 23.0144 50.9221 23.0754ZM16.5851 25.3426C16.2097 25.4574 15.5275 25.6767 15.0691 25.8299C8.47768 28.0321 4.23231 31.084 3.52061 34.1316C3.41406 34.5879 3.41448 35.4004 3.52152 35.8642C4.0525 38.1653 6.64563 40.517 10.8107 42.4747C12.1374 43.0983 13.536 43.6538 15.0691 44.1659C15.973 44.4679 17.2806 44.8685 17.3622 44.8685C17.3972 44.8685 17.4706 44.6859 17.5981 44.2822C18.3901 41.773 19.6998 38.3919 20.9537 35.6192L21.2347 34.9979L20.9541 34.3766C19.6866 31.5701 18.4037 28.2581 17.5986 25.7136C17.4355 25.198 17.4043 25.1277 17.3404 25.1306C17.3004 25.1324 16.9605 25.2278 16.5851 25.3426ZM60.8691 26.3263C60.0281 28.8711 59.0724 31.3302 57.904 33.9559L57.4409 34.9965L57.9039 36.0386C59.0787 38.6818 60.0367 41.147 60.8695 43.6695C61.144 44.5009 61.2806 44.8682 61.3154 44.8683C61.3811 44.8686 62.5069 44.5303 63.2604 44.2839C65.706 43.4841 68.0449 42.4792 69.8049 41.472C72.4147 39.9786 74.2165 38.2669 74.8991 36.6327C75.5453 35.0855 75.294 33.6208 74.1081 32.0227C73.7562 31.5486 72.8439 30.6368 72.2384 30.1543C70.2329 28.556 67.3205 27.0894 63.7234 25.8668C62.9417 25.601 61.399 25.1272 61.3163 25.1275C61.2803 25.1276 61.1483 25.4815 60.8691 26.3263ZM38.8464 27.9997C37.6694 28.072 36.4825 28.4749 35.4693 29.1458C33.7952 30.2545 32.6893 31.9975 32.3885 34.0015C32.3118 34.5134 32.3118 35.4824 32.3885 35.9943C32.7386 38.3266 34.1525 40.2604 36.2667 41.2984C37.3798 41.845 38.5366 42.0725 39.8069 41.9948C41.1657 41.9116 42.4921 41.4118 43.6078 40.5624C45.1906 39.3575 46.2121 37.4483 46.3333 35.4683C46.4107 34.204 46.1823 33.0389 45.6395 31.9286C44.3734 29.339 41.7493 27.8213 38.8464 27.9997ZM23.1472 39.1856C22.8871 39.7973 22.2972 41.2912 21.976 42.1516C21.6422 43.0454 20.7504 45.6348 20.7504 45.7099C20.7504 45.7236 20.7936 45.7439 20.8466 45.755C22.7718 46.1589 23.5929 46.3147 25.0206 46.5466C26.0776 46.7183 27.7162 46.9449 27.7386 46.9225C27.7477 46.9134 27.5785 46.6255 27.3626 46.2826C26.0946 44.269 24.7655 41.9708 23.6416 39.8485C23.4181 39.4265 23.2284 39.0744 23.2199 39.0659C23.2115 39.0575 23.1788 39.1114 23.1472 39.1856ZM55.1393 39.6418C54.1224 41.5932 52.6734 44.1102 51.3895 46.1556C51.1325 46.565 50.9221 46.9091 50.9221 46.9201C50.9221 46.9433 50.9896 46.9352 52.1647 46.7711C53.2356 46.6216 54.4403 46.4242 55.5774 46.2121C56.4768 46.0443 57.8918 45.751 57.9154 45.7274C57.9333 45.7095 57.2279 43.601 56.9268 42.7728C56.4644 41.5007 55.5405 39.1556 55.4727 39.0818C55.4581 39.0659 55.3081 39.3179 55.1393 39.6418ZM19.7669 49.1862C19.4105 50.5101 18.9306 53.0325 18.7406 54.5816C18.5535 56.1067 18.5276 56.5478 18.5286 58.2043C18.5295 59.8778 18.5569 60.2873 18.738 61.3314C19.2301 64.1676 20.3817 65.8782 22.18 66.4439C22.6241 66.5836 23.0825 66.6451 23.673 66.6441C25.0995 66.6419 26.627 66.2057 28.5208 65.2596C30.4467 64.2975 32.5185 62.8655 34.6987 60.9894C35.4925 60.3063 36.9213 58.9877 36.9213 58.9383C36.9213 58.9246 36.7434 58.7184 36.5259 58.4801C34.5777 56.3449 32.318 53.5283 30.4992 50.9681C30.2686 50.6436 30.335 50.672 29.6584 50.6091C26.7872 50.3425 22.6518 49.6933 20.0944 49.1075L19.8059 49.0415L19.7669 49.1862ZM58.6576 49.0924C58.5517 49.1171 58.0083 49.2311 57.45 49.3457C54.9813 49.8523 52.4722 50.2396 49.8371 50.521C49.1922 50.5898 48.5997 50.6542 48.5204 50.664C48.3809 50.6812 48.3657 50.6966 48.0483 51.1441C46.4096 53.4542 44.0785 56.3544 42.1804 58.4447C41.9446 58.7044 41.7516 58.9279 41.7516 58.9412C41.7516 58.9679 42.8579 60.0057 43.4142 60.5008C47.0344 63.7227 50.5295 65.8208 53.3191 66.4464C54.5171 66.7151 55.6336 66.7142 56.4929 66.4439C56.8188 66.3413 57.2352 66.1435 57.5329 65.9497C57.8291 65.7569 58.4757 65.0927 58.7011 64.7497C59.3957 63.6927 59.837 62.2979 60.0634 60.4444C60.1345 59.8622 60.1426 59.6379 60.1437 58.2218C60.145 56.51 60.1175 56.0558 59.9165 54.4766C59.7905 53.4863 59.6513 52.6368 59.4448 51.5988C59.2777 50.7587 58.9109 49.1466 58.8728 49.0843C58.8571 49.0588 58.7909 49.0613 58.6576 49.0924ZM34.8726 51.1195C35.5198 51.9778 36.8573 53.6357 37.6515 54.5641C38.2401 55.2522 39.3116 56.4542 39.3365 56.4542C39.3587 56.4542 40.3828 55.3083 40.9319 54.6691C41.7415 53.7265 42.6048 52.6653 43.3947 51.6414C43.6324 51.3334 43.8442 51.0592 43.8655 51.0321C43.8987 50.9899 43.8135 50.9865 43.2742 51.0086C41.2971 51.0895 37.3719 51.0895 35.3991 51.0085L34.7694 50.9827L34.8726 51.1195Z" fill="url(#paint0_linear_2045_1284)"/>
<defs>
<linearGradient id="paint0_linear_2045_1284" x1="0" y1="35" x2="78.658" y2="35" gradientUnits="userSpaceOnUse">
<stop stop-color="#11E9E3" stop-opacity="0.6"/>
<stop offset="1" stop-color="#86239B"/>
</linearGradient>
</defs>
</svg>
