<svg width="69" height="70" viewBox="0 0 69 70" fill="none" xmlns="http://www.w3.org/2000/svg">
<path fill-rule="evenodd" clip-rule="evenodd" d="M29.5942 0.297783C28.871 0.661804 1.56759 34.9516 0.850052 36.3975C0.127143 37.8538 0.132977 40.0811 0.864052 41.5911C1.51556 42.937 3.11188 44.3886 4.34769 44.759C5.00689 44.9564 9.31587 45.0334 19.7248 45.0334H34.1857L34.3397 52.2088C34.4244 56.1552 34.4938 61.1623 34.494 63.3357C34.4945 66.8385 34.5486 67.3992 34.9714 68.2726C35.87 70.1287 38.4627 70.5942 39.8682 69.1519C40.2257 68.7851 43.8036 64.337 47.8188 59.2675C51.8342 54.1981 57.95 46.4801 61.4096 42.1166C64.8692 37.753 67.8588 33.8152 68.0532 33.3661C68.2478 32.9169 68.4112 31.8659 68.4163 31.0305C68.428 29.1658 67.7912 27.71 66.4235 26.4744C64.5362 24.7693 65.4316 24.8566 49.0287 24.7808L34.2781 24.7126L34.2112 13.4634C34.1477 2.77639 34.1216 2.17646 33.688 1.45962C32.9026 0.161275 30.9609 -0.38989 29.5942 0.297783Z" fill="url(#paint0_linear_2045_1316)"/>
<defs>
<linearGradient id="paint0_linear_2045_1316" x1="0.311783" y1="35" x2="68.4165" y2="35" gradientUnits="userSpaceOnUse">
<stop stop-color="#11E9E3" stop-opacity="0.6"/>
<stop offset="1" stop-color="#86239B"/>
</linearGradient>
</defs>
</svg>
