<svg width="118" height="70" viewBox="0 0 118 70" fill="none" xmlns="http://www.w3.org/2000/svg">
<path fill-rule="evenodd" clip-rule="evenodd" d="M52.6226 0.275332C44.6495 1.73091 38.5711 5.54413 34.5268 11.6276C32.7117 14.3576 30.3857 19.5971 29.8552 22.1503L29.5715 23.5165L31.7577 21.1175C34.3531 18.27 37.4063 16.1575 40.4908 15.0751C42.2911 14.4439 43.4746 14.3151 46.4739 14.4244C51.9789 14.6254 54.0594 15.7558 60.6483 22.1258C63.4623 24.8464 66.7228 27.8251 67.8938 28.7451C74.0877 33.6119 82.4788 35.7896 91.9575 34.9898C101.23 34.2075 108.088 30.2745 112.844 23.0126C114.651 20.2545 116.716 15.5224 117.287 12.8357C117.554 11.5819 117.442 11.6541 114.786 14.4501C108.015 21.5781 99.2545 22.9045 91.984 17.9023C90.9875 17.2165 87.8421 14.4146 84.9946 11.676C77.9341 4.88524 74.7396 2.80903 68.6507 1.05484C65.4343 0.128174 55.9537 -0.332816 52.6226 0.275332ZM22.7835 35.432C15.1652 36.7998 8.474 41.3406 4.54445 47.8093C3.06506 50.2442 1.03062 55.07 0.581725 57.2079C0.323711 58.4375 0.45994 58.3496 3.37187 55.4139C8.18749 50.5581 12.9629 48.7446 18.8238 49.5463C23.1835 50.1424 25.5096 51.5772 31.5294 57.3847C39.3553 64.9335 43.199 67.4574 49.5884 69.2432C53.2085 70.255 64.6716 70.2515 68.3021 69.2374C74.6623 67.4613 80.038 63.5556 83.5737 58.1431C85.3599 55.4084 87.4424 50.6482 87.9975 48.0314C88.2445 46.867 88.0548 46.9908 85.1636 49.8824C80.2906 54.7554 75.4211 56.6083 69.7866 55.734C65.3246 55.0419 63.3202 53.7932 57.0447 47.796C49.0607 40.1661 45.379 37.7335 39.2078 36.0113C36.4703 35.247 25.8909 34.8742 22.7835 35.432Z" fill="url(#paint0_linear_2045_1293)"/>
<defs>
<linearGradient id="paint0_linear_2045_1293" x1="0.493256" y1="35" x2="117.385" y2="35" gradientUnits="userSpaceOnUse">
<stop stop-color="#11E9E3" stop-opacity="0.6"/>
<stop offset="1" stop-color="#86239B"/>
</linearGradient>
</defs>
</svg>
