<svg width="29" height="30" viewBox="0 0 29 30" fill="none" xmlns="http://www.w3.org/2000/svg">
<path d="M13.186 2.76425C14.2065 1.66415 14.7168 1.1141 15.1312 1.04603C15.2943 1.01924 15.3709 1.01941 15.5339 1.04692C15.948 1.11683 16.4578 1.67131 17.4774 2.78026C18.5192 3.91326 19.8422 5.05941 21.2141 5.48948C22.3195 5.83598 23.8167 5.83052 25.0226 5.74123C25.9558 5.67213 26.4224 5.63758 26.7462 5.82116C26.8539 5.88221 26.9447 5.95313 27.03 6.04284C27.2865 6.3126 27.3561 6.7168 27.4954 7.52519C27.9922 10.4098 28.5907 15.7195 27.086 19.1729C25.6996 22.355 21.9377 25.3152 19.0416 27.2305C17.6795 28.1313 16.9984 28.5817 15.8819 28.7307C15.5872 28.77 15.0732 28.7802 14.7772 28.7526C13.6556 28.6478 12.9562 28.224 11.5573 27.3763C8.45565 25.4969 4.34547 22.5097 2.86448 19.1729C1.33832 15.7343 1.94195 10.4323 2.44625 7.54144C2.58851 6.72589 2.65965 6.31812 2.92089 6.04764C3.00736 5.9581 3.10048 5.88673 3.20941 5.8265C3.53849 5.64453 4.00618 5.68682 4.94155 5.77142C6.33941 5.89784 8.15958 5.93308 9.47036 5.48948C10.8265 5.03054 12.1439 3.88766 13.186 2.76425Z" fill="white" stroke="white" stroke-width="1.83871" stroke-linejoin="round"/>
</svg>
