<svg width="41" height="40" viewBox="0 0 41 40" fill="none" xmlns="http://www.w3.org/2000/svg">
<path d="M34.8548 19.7258C35.024 19.7258 35.1616 19.8631 35.1581 20.0323C35.1038 22.6386 34.3576 25.1857 32.9936 27.4116C31.5762 29.7246 29.5467 31.6007 27.1296 32.8322C24.7125 34.0638 22.0019 34.603 19.2975 34.3902C16.593 34.1773 14.0001 33.2207 11.8054 31.6262C9.61074 30.0317 7.89974 27.8613 6.8616 25.355C5.82346 22.8487 5.49861 20.1041 5.92299 17.4247C6.34736 14.7453 7.50442 12.2355 9.26624 10.1726C10.9617 8.18756 13.1536 6.69086 15.6156 5.83382C15.7754 5.77818 15.9484 5.86657 16.0007 6.02754L19.8323 17.82C20.2016 18.9564 21.2606 19.7258 22.4554 19.7258H34.8548Z" fill="white" stroke="white" stroke-width="1.83871"/>
<path d="M21.8545 5.74754C21.8022 5.58658 21.8901 5.41315 22.0528 5.36637C23.3155 5.00319 24.6437 4.92087 25.9438 5.12679C27.345 5.34871 28.6737 5.89909 29.8213 6.73292C30.969 7.56675 31.903 8.66036 32.5471 9.92434C33.1447 11.0972 33.4768 12.3859 33.5216 13.699C33.5274 13.8681 33.3896 14.0054 33.2204 14.0054L25.6508 14.0054C24.987 14.0054 24.3987 13.5779 24.1936 12.9466L21.8545 5.74754Z" fill="white" stroke="white" stroke-width="1.83871"/>
</svg>
